PathFileType	4	(X/Y/Z)	C:/Users/opensim2020/Desktop/walking_exp_matlab/subject02_walking11_straight_03.trc																																																																																																																												
DataRate	CameraRate	NumFrames	NumMarkers	Units	OrigDataRate	OrigDataStartFrame	OrigNumFrames																																																																																																																								
100	100	5	42	mm	100	2442	250																																																																																																																								
Frame#	Time	LFHD			RFHD			LBHD			RBHD			C7			T10			CLAV			STRN			RBAK			LSHO			LUPA			LELB			LFRM			LWRA			LWRB			LFIN			RSHO			RUPA			RELB			RFRM			RWRA			RWRB			RFIN			LASI			RASI			LPSI			RPSI			LTHI			LKNE			LTIB			LANK			LHEE			LTOE			RTHI			RKNE			RTIB			RANK			RHEE			RTOE			*39			*40			*41		
		X1	Y1	Z1	X2	Y2	Z2	X3	Y3	Z3	X4	Y4	Z4	X5	Y5	Z5	X6	Y6	Z6	X7	Y7	Z7	X8	Y8	Z8	X9	Y9	Z9	X10	Y10	Z10	X11	Y11	Z11	X12	Y12	Z12	X13	Y13	Z13	X14	Y14	Z14	X15	Y15	Z15	X16	Y16	Z16	X17	Y17	Z17	X18	Y18	Z18	X19	Y19	Z19	X20	Y20	Z20	X21	Y21	Z21	X22	Y22	Z22	X23	Y23	Z23	X24	Y24	Z24	X25	Y25	Z25	X26	Y26	Z26	X27	Y27	Z27	X28	Y28	Z28	X29	Y29	Z29	X30	Y30	Z30	X31	Y31	Z31	X32	Y32	Z32	X33	Y33	Z33	X34	Y34	Z34	X35	Y35	Z35	X36	Y36	Z36	X37	Y37	Z37	X38	Y38	Z38	X39	Y39	Z39	X40	Y40	Z40	X41	Y41	Z41	X42	Y42	Z42
																																																																																																																															
63	0.62	-454.43222	1739.72791	1446.95068	-450.20233	1723.08679	1590.50769	-560.742	1633.81616	1439.73401	-568.85529	1612.8501	1581.18701	-593.89087	1511.40271	1521.91016	-660.78717	1242.16699	1536.00464	-458.06693	1441.37866	1496.41895	-413.95691	1264.68689	1507.1709	-650.49084	1347.18677	1599.37512	-546.23047	1481.18274	1335.79163	-605.49304	1288.90173	1262.30957	-642.1236	1154.26746	1256.28723	-673.09137	1028.27063	1236.61975	-651.54456	889.81818	1243.79126	-701.7254	908.29004	1225.86694	-702.59705	841.54913	1215.84375	-489.69662	1481.9447	1696.57837	-476.9133	1293.62769	1792.25842	-425.87515	1155.31213	1813.60242	-358.26935	1055.99353	1828.93042	-271.04279	954.70197	1805.43774	-311.1467	934.83344	1840.29639	-252.68137	892.62909	1842.71484	-438.75122	978.11621	1386.75806	-432.34543	957.6095	1644.23254	-646.60504	1017.64459	1472.34351	-647.11267	1017.2254	1586.71008	-443.13095	678.69025	1307.9071	-400.74265	482.66327	1329.17444	-381.80347	290.54837	1317.6106	-282.85956	85.24911	1322.65015	-297.33221	46.48792	1376.73474	-128.09055	99.16613	1294.6947	-559.06592	661.69092	1702.19189	-608.1795	455.91324	1664.67871	-696.33459	287.9325	1672.20764	-761.8183	103.96072	1636.51636	-807.91467	55.10952	1582.12573	-620.44464	32.87908	1653.55237	-569.33228	1777.49438	1536.41699	2845.7793	1034.29456	-3357.26318	NaN	NaN	NaN
64	0.63	-446.51724	1738.97192	1444.7583	-442.22137	1722.43689	1588.20007	-552.84668	1632.98389	1437.57031	-560.86499	1612.10449	1579.03149	-585.83673	1510.51404	1519.80176	-652.35999	1241.15015	1533.88269	-449.93942	1440.67871	1494.28931	-405.46161	1264.09998	1505.20361	-642.7135	1346.53882	1597.4397	-538.31317	1480.28442	1333.72998	-597.99127	1287.96375	1260.55127	-634.95941	1153.54431	1254.68347	-666.26105	1027.66846	1235.27258	-644.80432	889.07587	1242.76099	-695.11102	907.70905	1224.69238	-696.42151	840.7865	1214.69568	-481.82224	1481.37854	1694.54443	-468.78323	1292.7395	1789.63574	-417.17657	1154.53687	1810.83936	-349.08603	1055.45776	1825.79785	-261.24118	954.7691	1802.2428	-301.15573	934.69073	1837.04907	-242.46063	892.79639	1839.35046	-429.28604	977.54443	1384.86218	-423.80551	956.66479	1642.41394	-637.60162	1016.79803	1469.98462	-638.43988	1016.37866	1584.36475	-431.92767	678.6524	1306.05725	-390.21103	482.19565	1327.78564	-373.24414	289.70816	1317.04846	-276.45975	83.53235	1323.22107	-291.3143	45.1493	1377.66516	-121.62727	95.92876	1295.3783	-552.36047	661.31104	1700.87427	-602.6441	455.95099	1663.94543	-692.92133	288.96448	1671.6521	-760.78693	105.79272	1636.7356	-806.87787	56.92704	1582.15698	-620.30133	32.84678	1653.71106	-561.38214	1776.87	1534.3385	2845.87769	1034.29651	-3357.51074	NaN	NaN	NaN
65	0.64	-438.4324	1738.22339	1442.3999	-434.2283	1721.80762	1585.78271	-544.91046	1632.1333	1435.29456	-552.77649	1611.36462	1576.80762	-577.79285	1509.65906	1517.6344	-643.80872	1240.08594	1531.62927	-441.72369	1440.03601	1492.08679	-396.93768	1263.60913	1503.11169	-634.43695	1345.58643	1595.2937	-530.33441	1479.44983	1331.57336	-590.96869	1287.38147	1258.37451	-627.40887	1152.78723	1253.04309	-659.48547	1027.23987	1233.77185	-637.95819	888.42206	1241.29053	-688.25323	907.04181	1223.26929	-690.06207	840.14423	1213.48889	-473.75897	1480.66382	1692.27014	-460.66727	1291.99365	1787.23987	-408.33887	1154.05579	1808.38757	-340.03644	1055.0835	1822.79858	-251.78278	954.82642	1798.97876	-291.56894	934.40894	1833.71899	-232.69409	892.84723	1835.90576	-419.79218	976.72925	1382.49463	-415.12411	955.70544	1640.44019	-628.42657	1015.8902	1467.49194	-629.49463	1015.46161	1581.83142	-421.45105	678.46106	1303.2395	-379.94376	481.59781	1326.30383	-365.22006	288.74014	1316.51294	-271.16672	81.48569	1323.92444	-286.87723	43.81268	1378.64465	-116.24678	92.26291	1296.505	-545.4693	661.07373	1699.59155	-596.97949	455.82016	1663.10706	-689.38385	290.22299	1671.12976	-759.68524	107.8265	1636.94287	-806.79041	59.9117	1582.46106	-620.25165	32.7959	1653.82263	-553.46161	1776.06067	1531.94141	2845.77832	1034.24805	-3357.22827	NaN	NaN	NaN
66	0.65	-430.62967	1737.48047	1439.7832	-426.18277	1721.16443	1583.30444	-536.90594	1631.37158	1432.92944	-544.67249	1610.67017	1574.47107	-569.58032	1508.78186	1515.30933	-635.08197	1238.99829	1529.24268	-433.5162	1439.42139	1489.75183	-388.29041	1263.09827	1500.88171	-625.7652	1344.38782	1592.91016	-522.25262	1478.61902	1329.26526	-582.57208	1286.37341	1256.47803	-619.88214	1152.0697	1251.18665	-652.27362	1026.2373	1231.73938	-630.97961	887.68378	1240.42737	-681.12299	906.36572	1221.78491	-682.64447	839.7002	1212.43298	-465.78113	1480.02271	1690.05273	-452.3118	1291.47632	1784.56641	-399.81949	1153.41882	1805.55811	-331.1351	1054.55042	1819.68347	-242.47676	954.72809	1795.56799	-282.25598	934.06476	1830.26221	-223.1945	892.69489	1832.23267	-409.89648	976.21356	1380.04468	-406.14529	954.73926	1638.26001	-619.05377	1015.0191	1464.88501	-620.37598	1014.58685	1579.10645	-409.98248	678.3233	1301.31482	-370.04575	480.82181	1324.97339	-357.8371	287.77304	1316.02637	-266.81528	79.2556	1324.72388	-282.70407	41.1182	1379.2583	-111.82299	88.02516	1297.83044	-538.30579	660.78729	1698.06531	-591.0238	455.61508	1661.91003	-685.88702	291.62552	1670.59448	-758.67822	109.88105	1636.83765	-806.03558	62.77379	1582.58838	-620.09094	32.88572	1654.11133	-545.50079	1775.34106	1529.52478	2845.24561	1034.15967	-3360.4353	NaN	NaN	NaN
67	0.66	-422.5675	1736.75354	1437.30518	-418.16718	1720.51233	1580.73889	-528.94476	1630.55737	1430.50769	-536.56305	1609.97241	1572.05261	-561.41656	1507.93701	1512.90613	-626.28662	1237.87427	1526.6748	-425.22729	1438.82019	1487.3739	-379.50897	1262.66687	1498.56409	-618.01697	1343.83557	1590.87585	-514.08313	1477.87231	1326.90222	-575.08936	1285.91565	1254.16589	-611.81622	1151.31433	1249.27075	-644.49939	1025.80383	1230.24609	-623.2851	887.36664	1238.32239	-673.93811	905.8396	1220.25061	-675.50079	838.89343	1210.98218	-457.67233	1479.26575	1687.68872	-444.36487	1290.73706	1781.74353	-391.50894	1152.74573	1802.60278	-322.53107	1054.09131	1816.53979	-233.7487	954.59875	1792.03748	-273.28641	933.62183	1826.67773	-214.13428	892.33752	1828.46912	-399.80157	975.80627	1377.0896	-396.86005	953.90271	1635.85352	-609.43591	1014.10834	1462.0238	-610.98456	1013.64197	1576.10938	-399.16327	678.02728	1298.69556	-360.43716	480.04507	1323.09814	-350.81046	286.33768	1315.37756	-263.35318	76.66218	1325.56689	-280.52145	39.31166	1380.02307	-108.2282	83.32997	1299.3656	-531.05286	660.63623	1696.5199	-584.77856	456.07675	1661.3252	-682.17938	293.15005	1669.98901	-757.18713	112.39063	1637.14685	-804.96967	65.66993	1582.77979	-619.83264	32.85423	1654.3269	-537.51654	1774.5592	1526.98193	2845.8147	1034.36133	-3357.51611	NaN	NaN	NaN
